<svg width="224" height="60" viewBox="0 0 224 60" fill="none" xmlns="http://www.w3.org/2000/svg">
<path d="M0.162865 52.6393H3.42031V35.1372H12.8262V52.6393H16.0836V32.1929H0.162865V52.6393Z" fill="white"/>
<path d="M31.4598 31.7839C29.0574 31.7839 27.1029 32.52 25.5964 33.9921C24.0898 35.4234 23.3569 37.2227 23.3569 39.3082V45.483C23.3569 47.6095 24.0898 49.4087 25.5964 50.8809C27.1029 52.3121 29.0574 53.0482 31.4598 53.0482C33.8214 53.0482 35.7351 52.3121 37.2417 50.8809C38.7483 49.4087 39.5219 47.6095 39.5219 45.5239V39.3082C39.5219 37.2227 38.7483 35.4643 37.2417 33.9921C35.7351 32.52 33.8214 31.7839 31.4598 31.7839ZM36.183 45.7284C36.183 48.182 34.3507 50.1448 31.4598 50.1448C28.5688 50.1448 26.655 48.1411 26.655 45.6875V39.1038C26.655 36.6502 28.5688 34.6873 31.4598 34.6873C34.3507 34.6873 36.183 36.6502 36.183 39.1038V45.7284Z" fill="white"/>
<path d="M46.8766 52.6393H50.1341V35.1372H59.8657V32.1929H46.8766V52.6393Z" fill="white"/>
<path d="M75.3182 31.7839C74.2188 31.7839 73.1601 32.0293 72.2236 32.4791C71.2871 32.9289 70.6763 33.297 70.3913 33.5832C70.147 33.8695 69.9434 34.0739 69.8212 34.2784L69.6991 32.1929H66.7674V60H70.0248V50.7991L70.5134 51.3307C71.1649 52.1077 73.0379 53.0482 75.1553 53.0482C77.3133 53.0482 79.1049 52.3121 80.6115 50.84C82.1181 49.3679 82.8917 47.6095 82.8917 45.5239V39.3082C82.8917 37.2227 82.1588 35.4234 80.7336 33.9921C79.3085 32.52 77.4762 31.7839 75.3182 31.7839ZM79.5528 45.6466C79.5528 48.3046 77.6391 50.063 74.8295 50.063C72.0607 50.063 70.0248 48.1411 70.0248 45.6466V39.4309C70.0248 38.1632 70.4727 37.0591 71.4092 36.1186C72.3457 35.178 73.4858 34.6873 74.8295 34.6873C77.7205 34.6873 79.5528 36.4866 79.5528 39.4718V45.6466Z" fill="white"/>
<path d="M97.8454 47.8139L92.267 32.1929H88.6838L96.0131 51.985L94.8323 55.052C94.3437 56.4014 93.5293 57.0557 92.4299 57.0557H90.2718V60H92.6335C95.4023 60 97.1125 58.1598 97.9268 55.9925L106.844 32.1929H103.383L97.8454 47.8139Z" fill="white"/>
<path d="M133.112 32.1929H129.57L125.009 40.3714H124.195V32.1929H121.06V40.3714H120.205L115.685 32.1929H112.102L117.843 41.8845L111.857 52.6393H115.4L120.286 43.3157H121.06V52.6393H124.195V43.3157H124.928L129.855 52.6393H133.357L127.371 41.8845L133.112 32.1929Z" fill="white"/>
<path d="M145.994 31.7839C143.551 31.7839 141.597 32.52 140.09 33.9921C138.624 35.4643 137.892 37.2227 137.892 39.2673V45.483C137.892 47.5686 138.624 49.327 140.09 50.84C141.597 52.3121 143.551 53.0482 145.994 53.0482C151.491 53.0482 153.69 48.7954 153.649 46.3827H150.311C150.311 48.5091 148.275 50.1448 145.994 50.1448C143.103 50.1448 141.19 48.1411 141.19 45.6875V43.4384H153.934V39.2673C153.934 37.2227 153.202 35.4643 151.776 33.9921C150.351 32.52 148.438 31.7839 145.994 31.7839ZM150.718 40.4941H141.19V39.1446C141.19 36.6911 143.103 34.7282 145.994 34.7282C148.885 34.7282 150.718 36.6911 150.718 39.1446V40.4941Z" fill="white"/>
<path d="M173.84 40.3714H164.435V32.1929H161.177V52.6393H164.435V43.3157H173.84V52.6393H177.098V32.1929H173.84V40.3714Z" fill="white"/>
<path d="M187.588 48.3046L187.791 42.2525V32.1929H184.697V52.6393H188.036L197.727 36.5275L197.523 42.5797V52.6393H200.618V32.1929H197.197L187.588 48.3046Z" fill="white"/>
<path d="M216.029 31.7839C213.586 31.7839 211.632 32.52 210.125 33.9921C208.659 35.4643 207.927 37.2227 207.927 39.2673V45.483C207.927 47.5686 208.659 49.327 210.125 50.84C211.632 52.3121 213.586 53.0482 216.029 53.0482C221.526 53.0482 223.725 48.7954 223.684 46.3827H220.346C220.346 48.5091 218.31 50.1448 216.029 50.1448C213.138 50.1448 211.225 48.1411 211.225 45.6875V43.4384H223.969V39.2673C223.969 37.2227 223.237 35.4643 221.811 33.9921C220.386 32.52 218.473 31.7839 216.029 31.7839ZM220.753 40.4941H211.225V39.1446C211.225 36.6911 213.138 34.7282 216.029 34.7282C218.92 34.7282 220.753 36.6911 220.753 39.1446V40.4941Z" fill="white"/>
<path d="M0 0V20.6407H2.54488V2.5558H46.841V20.6407H49.3859V2.5558H161.167V20.6407H163.712V2.5558H221.455V20.6407H224V0H0Z" fill="white"/>
</svg>
